<?xml version="1.0" standalone="no"?>
<!DOCTYPE svg PUBLIC "-//W3C//DTD SVG 20010904//EN"
 "http://www.w3.org/TR/2001/REC-SVG-20010904/DTD/svg10.dtd">
<svg version="1.0" xmlns="http://www.w3.org/2000/svg"
 width="512.000000pt" height="512.000000pt" viewBox="0 0 512.000000 512.000000"
 preserveAspectRatio="xMidYMid meet">
<metadata>
Created by potrace 1.14, written by Peter Selinger 2001-2017
</metadata>
<g transform="translate(0.000000,512.000000) scale(0.100000,-0.100000)"
fill="#000000" stroke="none">
<path d="M1205 4849 c-177 -17 -310 -59 -452 -146 -95 -57 -101 -62 -190 -152
-149 -148 -235 -311 -278 -525 -3 -10 -7 -44 -11 -75 -9 -71 -9 -2743 0 -2793
3 -21 9 -55 12 -75 3 -21 19 -77 35 -125 51 -151 128 -275 242 -391 150 -152
335 -247 562 -288 53 -9 383 -12 1425 -12 745 0 1381 3 1413 7 379 46 714 319
835 681 56 168 54 103 54 1590 0 754 -2 1388 -5 1410 -3 22 -13 72 -21 110
-79 366 -372 665 -746 760 -102 26 -199 28 -1480 29 -729 0 -1356 -2 -1395 -5z
m1679 -1379 c57 -27 89 -78 89 -138 -1 -34 -73 -263 -261 -822 -143 -426 -265
-786 -271 -800 -27 -56 -126 -93 -189 -69 -66 25 -117 105 -106 167 6 35 513
1559 529 1592 41 79 130 109 209 70z m-1009 -263 c46 -30 66 -63 71 -120 4
-39 1 -60 -13 -84 -10 -18 -110 -125 -222 -238 l-204 -205 209 -210 c115 -115
214 -222 221 -237 29 -66 4 -154 -54 -197 -36 -26 -121 -33 -159 -13 -16 9
-156 143 -311 299 -259 261 -282 286 -288 325 -14 87 -13 88 289 392 154 156
295 289 311 297 41 19 113 14 150 -9z m1518 10 c15 -7 153 -138 307 -292 286
-286 301 -304 299 -375 0 -14 -5 -37 -12 -53 -17 -39 -555 -576 -594 -593
-129 -56 -262 71 -213 203 6 15 106 124 223 241 l212 212 -212 213 c-117 116
-217 225 -223 240 -48 131 85 260 213 204z"/>
</g>
</svg>
